<svg width="400" height="200" xmlns="http://www.w3.org/2000/svg">
  <!-- Background -->
  <rect width="400" height="200" fill="#f5f5f5"/>
  
  <!-- Black dress shoe -->
  <rect x="50" y="120" width="50" height="30" rx="3" fill="#212121"/>
  <rect x="55" y="110" width="40" height="20" rx="5" fill="#424242"/>
  
  <!-- Brown dress shoe -->
  <rect x="150" y="115" width="50" height="30" rx="3" fill="#8d6e63"/>
  <rect x="155" y="105" width="40" height="20" rx="5" fill="#a1887f"/>
  
  <!-- Tan dress shoe -->
  <rect x="250" y="125" width="50" height="30" rx="3" fill="#d7ccc8"/>
  <rect x="255" y="115" width="40" height="20" rx="5" fill="#efebe9"/>
  
  <!-- Laces on black shoe -->
  <path d="M 70 130 L 70 118" stroke="#757575" stroke-width="2"/>
  <path d="M 80 130 L 80 118" stroke="#757575" stroke-width="2"/>
  
  <!-- Laces on brown shoe -->
  <path d="M 170 125 L 170 113" stroke="#a1887f" stroke-width="2"/>
  <path d="M 180 125 L 180 113" stroke="#a1887f" stroke-width="2"/>
  
  <!-- Laces on tan shoe -->
  <path d="M 270 135 L 270 123" stroke="#bdb9b6" stroke-width="2"/>
  <path d="M 280 135 L 280 123" stroke="#bdb9b6" stroke-width="2"/>
  
  <!-- Shine effects -->
  <ellipse cx="70" cy="125" rx="15" ry="8" fill="#ffffff" opacity="0.3"/>
  <ellipse cx="170" cy="120" rx="15" ry="8" fill="#ffffff" opacity="0.3"/>
  <ellipse cx="270" cy="130" rx="15" ry="8" fill="#ffffff" opacity="0.3"/>
</svg>




