<svg width="400" height="500" xmlns="http://www.w3.org/2000/svg">
  <defs>
    <linearGradient id="heroBg" x1="0%" y1="0%" x2="0%" y2="100%">
      <stop offset="0%" style="stop-color:#ffffff;stop-opacity:1" />
      <stop offset="100%" style="stop-color:#f5f5f5;stop-opacity:1" />
    </linearGradient>
  </defs>
  <rect width="400" height="500" fill="url(#heroBg)"/>
  
  <!-- Fashion Model -->
  
  <!-- Long hair -->
  <path d="M 150 60 Q 180 40 210 60 L 190 400 L 170 400 Z" fill="#2c1810"/>
  <path d="M 110 80 Q 140 70 170 80 L 160 380 L 140 380 Z" fill="#2c1810"/>
  <path d="M 230 80 Q 260 70 290 80 L 280 380 L 260 380 Z" fill="#2c1810"/>
  
  <!-- Head -->
  <circle cx="200" cy="120" r="50" fill="#fdbcb4"/>
  
  <!-- Elegant face -->
  <ellipse cx="185" cy="140" rx="6" ry="8" fill="#2c1810"/>
  <ellipse cx="215" cy="140" rx="6" ry="8" fill="#2c1810"/>
  <ellipse cx="200" cy="155" rx="8" ry="6" fill="#2c1810"/>
  <path d="M 185 165 Q 200 170 215 165" stroke="#d32f2f" stroke-width="3" fill="none" stroke-linecap="round"/>
  
  <!-- Neck -->
  <rect x="190" y="170" width="20" height="30" fill="#fdbcb4"/>
  
  <!-- Necklace -->
  <circle cx="200" cy="190" r="25" fill="none" stroke="#ffd700" stroke-width="3"/>
  <circle cx="200" cy="190" r="20" fill="none" stroke="#ffd700" stroke-width="2"/>
  
  <!-- White flowing dress -->
  <path d="M 160 200 Q 150 250 160 480 L 240 480 Q 250 250 240 200 Z" fill="#ffffff" stroke="#e0e0e0" stroke-width="2"/>
  
  <!-- Dress details -->
  <ellipse cx="200" cy="280" rx="80" ry="120" fill="#f5f5f5"/>
  <ellipse cx="200" cy="360" rx="70" ry="100" fill="#e8e8e8"/>
  
  <!-- Flower detail on dress -->
  <circle cx="200" cy="320" r="12" fill="#ff6b9d" opacity="0.6"/>
  <circle cx="185" cy="310" r="8" fill="#ffb74d" opacity="0.6"/>
  <circle cx="215" cy="310" r="8" fill="#81c784" opacity="0.6"/>
  
  <!-- Elegant pose -->
  <ellipse cx="140" cy="380" rx="15" ry="8" fill="#ffffff" stroke="#e0e0e0" stroke-width="2"/>
  <ellipse cx="260" cy="380" rx="15" ry="8" fill="#ffffff" stroke="#e0e0e0" stroke-width="2"/>
</svg>