<svg width="280" height="280" xmlns="http://www.w3.org/2000/svg">
  <defs>
    <linearGradient id="shirtBg" x1="0%" y1="0%" x2="0%" y2="100%">
      <stop offset="0%" style="stop-color:#ffffff;stop-opacity:1" />
      <stop offset="100%" style="stop-color:#f8f9fa;stop-opacity:1" />
    </linearGradient>
  </defs>
  <rect width="280" height="280" fill="url(#shirtBg)"/>
  
  <!-- Shirt/Top -->
  <path d="M 60 80 L 80 90 L 200 90 L 220 80 L 220 240 L 200 250 L 80 250 L 60 240 Z" fill="#ffffff" stroke="#e0e0e0" stroke-width="2"/>
  
  <!-- Collar -->
  <path d="M 120 80 L 140 95 L 160 80 L 155 115 L 125 115 Z" fill="#ffffff"/>
  <line x1="140" y1="95" x2="140" y2="115" stroke="#e0e0e0" stroke-width="2"/>
  
  <!-- Floral pattern -->
  <circle cx="100" cy="130" r="15" fill="#e91e63" opacity="0.6"/>
  <circle cx="140" cy="125" r="18" fill="#c2185b" opacity="0.5"/>
  <circle cx="180" cy="130" r="15" fill="#e91e63" opacity="0.6"/>
  <circle cx="90" cy="160" r="17" fill="#ec407a" opacity="0.55"/>
  <circle cx="130" cy="155" r="14" fill="#e91e63" opacity="0.6"/>
  <circle cx="170" cy="160" r="16" fill="#c2185b" opacity="0.5"/>
  <circle cx="115" cy="195" r="15" fill="#e91e63" opacity="0.6"/>
  <circle cx="155" cy="195" r="18" fill="#ec407a" opacity="0.55"/>
  <circle cx="70" cy="145" r="12" fill="#e91e63" opacity="0.6"/>
  <circle cx="210" cy="145" r="12" fill="#ec407a" opacity="0.6"/>
  
  <!-- Buttons -->
  <circle cx="140" cy="140" r="3" fill="#757575"/>
  <circle cx="140" cy="180" r="3" fill="#757575"/>
  <circle cx="140" cy="220" r="3" fill="#757575"/>
</svg>