<svg width="280" height="280" xmlns="http://www.w3.org/2000/svg">
  <defs>
    <linearGradient id="bg4" x1="0%" y1="0%" x2="0%" y2="100%">
      <stop offset="0%" style="stop-color:#f5f5f5;stop-opacity:1" />
      <stop offset="100%" style="stop-color:#e0e0e0;stop-opacity:1" />
    </linearGradient>
    <linearGradient id="bag" x1="0%" y1="0%" x2="0%" y2="100%">
      <stop offset="0%" style="stop-color:#424242;stop-opacity:1" />
      <stop offset="100%" style="stop-color:#212121;stop-opacity:1" />
    </linearGradient>
  </defs>
  <rect width="280" height="280" fill="url(#bg4)"/>
  
  <!-- Duffel Bag -->
  <rect x="50" y="70" width="180" height="140" rx="10" fill="url(#bag)"/>
  
  <!-- Top Flap -->
  <path d="M 50 70 Q 140 60 230 70" stroke="#616161" stroke-width="8" fill="none" stroke-linecap="round"/>
  
  <!-- Top Handle -->
  <path d="M 80 80 Q 100 90 120 100" stroke="#757575" stroke-width="12" fill="none" stroke-linecap="round"/>
  
  <!-- Bottom Handle -->
  <path d="M 160 80 Q 180 90 200 100" stroke="#757575" stroke-width="12" fill="none" stroke-linecap="round"/>
  
  <!-- Zipper -->
  <rect x="70" y="90" width="140" height="12" rx="6" fill="#9e9e9e"/>
  <line x1="80" y1="96" x2="200" y2="96" stroke="#757575" stroke-width="1"/>
  
  <!-- Zipper Pull -->
  <circle cx="140" cy="96" r="5" fill="#ffd700"/>
  
  <!-- Side Stitching -->
  <line x1="60" y1="85" x2="60" y2="195" stroke="#757575" stroke-width="2" stroke-dasharray="4,4"/>
  <line x1="220" y1="85" x2="220" y2="195" stroke="#757575" stroke-width="2" stroke-dasharray="4,4"/>
  
  <!-- Brand Label -->
  <rect x="115" y="140" width="50" height="20" rx="3" fill="#424242"/>
  <rect x="120" y="145" width="40" height="10" rx="2" fill="#757575"/>
</svg>